<svg id="Component_1_1" data-name="Component 1 – 1" xmlns="http://www.w3.org/2000/svg" xmlns:xlink="http://www.w3.org/1999/xlink" width="127.348" height="100.179" viewBox="0 0 127.348 100.179">
  <defs>
    <clipPath id="clip-path">
      <rect id="Rectangle_5" data-name="Rectangle 5" width="127.348" height="100.179" fill="none"/>
    </clipPath>
  </defs>
  <g id="Group_5" data-name="Group 5" clip-path="url(#clip-path)">
    <path id="Path_14" data-name="Path 14" d="M60.156,61.517c-.837.149-1.556.312-2.286.4-1.88.226-3.761.465-5.649.605a5.746,5.746,0,0,1-3.131-.567,1.572,1.572,0,0,1-.422-2.752,1.3,1.3,0,0,1,1.028-.315c2.107.793,4.2.354,6.3.036,1.8-.271,3.6-.527,5.391-.821a.928.928,0,0,0,.6-.422c1.09-2.235,2.127-4.5,3.222-6.73a66.468,66.468,0,0,1,5.058-9.01,13.393,13.393,0,0,1,3.7-3.961,4.126,4.126,0,0,1,1.375-.539,2.383,2.383,0,0,1,2.808,1.854,11.318,11.318,0,0,1,.175,4.564c-.515,3.268-1.083,6.529-1.631,9.793-.148.882-.3,1.761-.457,2.673,1,0,1.926-.007,2.855,0a8.286,8.286,0,0,1,1.422.075,1.442,1.442,0,0,1,1.2,1.637,1.605,1.605,0,0,1-1.441,1.4c-1.243.066-2.487.1-3.732.14-.853.029-.985.09-1.1.914-.455,3.1-.968,6.2-1.283,9.32-.255,2.528-.315,5.081-.356,7.624a16.936,16.936,0,0,0,1.154,6.865,5.545,5.545,0,0,0,2.481,2.988,9.8,9.8,0,0,0,2.073.6c.276.07.569.07.852.119a1.546,1.546,0,0,1,1.365,1.462,1.511,1.511,0,0,1-1.409,1.6,7.115,7.115,0,0,1-4.009-.763,9.219,9.219,0,0,1-4.55-5.525A22.634,22.634,0,0,1,70.6,77.5a69.016,69.016,0,0,1,.591-10.376c.3-2.256.675-4.5,1.037-6.747.1-.625-.3-.507-.628-.464-1.575.2-3.148.418-4.721.633-.644.088-1.285.213-1.932.273a1.51,1.51,0,0,0-1.34,1.006c-.82,1.9-1.682,3.779-2.473,5.689-1.342,3.236-2.643,6.49-3.96,9.736-.655,1.615-1.3,3.234-1.967,4.844-.3.732-.705,1.378-1.627,1.413A1.332,1.332,0,0,1,52.1,82.239a3.193,3.193,0,0,1,.194-1.287q1.176-3.116,2.423-6.206,2-4.953,4.039-9.888c.365-.885.789-1.745,1.176-2.62a7.217,7.217,0,0,0,.226-.722M75.244,41.284c-.283.166-.471.219-.57.344-.574.717-1.162,1.427-1.684,2.182a98.457,98.457,0,0,0-7.169,13.215,1.335,1.335,0,0,0-.062.361.8.8,0,0,0,.215.052c1.992-.257,3.986-.507,5.976-.78.99-.136.985-.157,1.082-1.118.023-.228.068-.455.108-.681.595-3.353,1.214-6.7,1.774-10.062.184-1.1.214-2.232.329-3.513" transform="translate(-17.301 -13.471)" fill="#131947"/>
    <path id="Path_15" data-name="Path 15" d="M153.236,27.893c-.412,1.3-.8,2.434-1.133,3.588q-1.327,4.666-2.605,9.345-.919,3.379-1.761,6.779c-.823,3.323-1.606,6.657-2.427,9.981-.131.53.079.58.49.47,1.091-.291,2.189-.558,3.268-.888,3.862-1.18,7.712-2.4,11.577-3.571,2-.606,4-1.18,6.023-1.691a6.912,6.912,0,0,1,2-.082,1.647,1.647,0,0,1,1.427,1.56,1.5,1.5,0,0,1-1.158,1.453,1.3,1.3,0,0,1-.623-.01,3.9,3.9,0,0,0-2.475.136c-2.853.879-5.71,1.742-8.561,2.627-2.247.7-4.481,1.439-6.735,2.119-1.647.5-3.311.943-4.977,1.377a1.663,1.663,0,0,0-1.319,1.4c-1.005,4.363-2.071,8.712-3.069,13.077-.524,2.292-.931,4.611-1.428,6.91-.521,2.412-1.113,4.81-1.625,7.223-.568,2.675-1.07,5.365-1.622,8.044-.409,1.986-.85,3.965-1.286,5.945-.23,1.045-.7,1.342-1.725,1.12a1.473,1.473,0,0,1-1.039-1.792q.449-2.194.926-4.382c.7-3.216,1.419-6.428,2.111-9.646.519-2.414.985-4.838,1.514-7.25.758-3.458,1.546-6.909,2.333-10.36q.892-3.918,1.818-7.829a8.132,8.132,0,0,1,.333-.976c.159-.426.038-.606-.432-.574a18.331,18.331,0,0,1-2.69.108,6.779,6.779,0,0,1-2.128-.589,1.213,1.213,0,0,1-.617-1.423,1.117,1.117,0,0,1,.871-.959,1.213,1.213,0,0,1,.727-.011,6.177,6.177,0,0,0,3.5.147c1.791-.288,1.448-.072,1.843-1.7.91-3.757,1.8-7.518,2.737-11.268q1.058-4.233,2.212-8.442c.784-2.878,1.613-5.744,2.431-8.612.193-.68.471-1.219,1.368-1.149a10.916,10.916,0,0,0,1.919-.194" transform="translate(-47.705 -10.049)" fill="#131947"/>
    <path id="Path_16" data-name="Path 16" d="M143.536,30.849c-.479-.769-.973-1.53-1.435-2.309a9.115,9.115,0,0,1-1.23-5.8,7.77,7.77,0,0,1,3.855-5.761,12.429,12.429,0,0,1,5.593-1.727A16.756,16.756,0,0,1,158.933,17c1.878.816,3.725,1.716,5.637,2.441a13.185,13.185,0,0,0,7.349.6c1.848-.371,3.651-.965,5.477-1.45a3.375,3.375,0,0,1,.605-.05l.074.209c-.525.322-1.036.668-1.576.962a16.734,16.734,0,0,1-6.632,2.265,16.161,16.161,0,0,1-7.423-1.143c-2.077-.834-4.142-1.706-6.255-2.439a11.764,11.764,0,0,0-8.482.071,7.216,7.216,0,0,0-3.909,3.848,10.925,10.925,0,0,0-.343,7.463c.082.337.17.671.255,1.007l-.174.071" transform="translate(-50.727 -5.469)" fill="#131947"/>
    <path id="Path_17" data-name="Path 17" d="M4.511,26.81c-.285-.364-.595-.712-.851-1.1A21.517,21.517,0,0,1,.779,20.059a13.263,13.263,0,0,1-.484-7.118A12.516,12.516,0,0,1,5.717,5.376a19.828,19.828,0,0,1,8.608-2.949c4.389-.612,8.471.436,12.444,2.144,3.147,1.353,6.226,2.878,9.425,4.092a21.656,21.656,0,0,0,9.217,1.58,36.776,36.776,0,0,0,8.778-1.656c1.238-.4,2.463-.839,3.7-1.248a6.217,6.217,0,0,1,.8-.139c-.177.2-.229.306-.313.356a39.041,39.041,0,0,1-8.519,4.215,21.921,21.921,0,0,1-11.109.551,44.458,44.458,0,0,1-8.09-2.727c-1.052-.445-2.178-.733-3.192-1.246a21.75,21.75,0,0,0-4.979-1.7c-4.073-.94-8.125-1.125-12.032.688A11.571,11.571,0,0,0,3.79,15.414a23.672,23.672,0,0,0-.546,4.252A19.465,19.465,0,0,0,4.1,24.909c.136.619.327,1.225.493,1.837l-.081.063" transform="translate(0 -0.811)" fill="#131947"/>
    <path id="Path_18" data-name="Path 18" d="M23.949,80.826c-.091-.059-.135-.269-.177-.378a15.863,15.863,0,0,0-.64-1.485,4.763,4.763,0,0,1-.551-1.521,6.589,6.589,0,0,1,.35-2.395c.773-2.783,1.473-5.586,2.19-8.384.908-3.54,1.842-7.073,2.7-10.626,1.007-4.185,1.94-8.386,2.907-12.581q.256-1.11.516-2.22a2.933,2.933,0,0,1,.681-1.623,2.151,2.151,0,0,1,1.027-.425A4.478,4.478,0,0,1,34.1,38.9a.265.265,0,0,1,.205.09.3.3,0,0,1,.03.209,27.364,27.364,0,0,1-.57,2.745c-.206.961-.416,1.921-.64,2.878C31.7,50.954,30.282,57.086,28.8,63.2c-.8,3.308-1.735,6.585-2.609,9.876-.353,1.33-.685,2.666-1.03,4-.173.667-.349,1.332-.534,1.995q-.138.5-.283.992c-.064.218-.045.536-.214.709-.075.076-.132.084-.178.055" transform="translate(-8.126 -14.014)" fill="#131947"/>
    <path id="Path_19" data-name="Path 19" d="M19.242,112.091c-.251.992-.444,1.848-.685,2.691q-1.227,4.3-2.487,8.594c-.247.836-.7,1.138-1.4,1.065a1.15,1.15,0,0,1-1.091-1.181,3.109,3.109,0,0,1,.1-.85c.478-1.732.989-3.455,1.46-5.188.722-2.656,1.416-5.319,2.133-7.977a3.452,3.452,0,0,1,.31-.624c.187.191.452.348.548.577.412.982.774,1.985,1.121,2.894" transform="translate(-4.89 -39.131)" fill="#131947"/>
    <path id="Path_20" data-name="Path 20" d="M38.327,24.88c.139-.647.275-1.176.363-1.714q.53-3.25,1.031-6.5c.152-1,.267-2,.4-3,.1-.722.219-.827.932-.637a2.724,2.724,0,0,1,1.142.492,1.333,1.333,0,0,1,.34,1c-.28,2.311-.611,4.615-.937,6.92-.12.85-.255,1.7-.418,2.542a.624.624,0,0,1-.339.431c-.795.18-1.6.307-2.514.473" transform="translate(-13.808 -4.661)" fill="#131947"/>
    <path id="Path_21" data-name="Path 21" d="M86.319,2.412C85.089.892,81.558.166,79.445.089A133.487,133.487,0,0,0,62.953.506q-4.229.369-8.429,1.006c-1.623.246-6.09.2-7.189,1.564.633.689,1.728.574,2.651.424A67.738,67.738,0,0,1,73.6,3.832a4.376,4.376,0,0,1,1.834.66,1.559,1.559,0,0,1,.63,1.718,2.177,2.177,0,0,1-.943.951c-5.237,3.338-11.711,4.956-17.688,6.394-9.64,2.318-19.521,3.524-29.223,5.552-4.9,1.025-9.919,2.1-14.157,4.762-12.87,8.1-6.333,26.578-1.933,37.675q2.828,7.131,5.961,14.136c3.521,7.871,7.464,15.8,13.764,21.692a10.227,10.227,0,0,0,4.071,2.6c5.528,1.539,6.779-6.049,7.61-9.775.523-2.344,3.638-16.821,7.8-13.872a4.975,4.975,0,0,1,1.488,2.244q3.04,7.153,6.079,14.307c.844,1.986,1.948,4.206,4.034,4.757,2.618.69,5-1.658,6.513-3.9,5.229-7.756,7.85-16.932,10.3-25.96,1.393-5.141,2.756-10.3,3.686-15.543.392-2.215.688-4.593-.258-6.633C80.6,56.6,77.82,67.611,73.579,78.089c-1.778,4.392-3.872,8.772-7.189,12.155a3.517,3.517,0,0,1-2.438,1.327c-1.366-.043-2.222-1.454-2.8-2.692-1.989-4.255-3.728-8.621-5.553-12.947-1.087-2.579-2.468-8.248-6.146-8.309-3.247-.054-4.075,4.125-5.131,6.45-1.928,4.245-2.86,9.175-4.163,13.664a6.741,6.741,0,0,1-1.9,3.586,4.516,4.516,0,0,1-4.934.042A12.275,12.275,0,0,1,29.7,87.636,109.25,109.25,0,0,1,12.367,49.369c-1.394-5.909-2.06-11.376,1.311-16.8,2.641-4.251,7.118-6.836,11.707-8.519a69.041,69.041,0,0,1,12.039-2.973C44.886,19.782,52.305,18.1,59.666,16.7a69.91,69.91,0,0,0,19.252-6.6,37.194,37.194,0,0,0,5.914-3.725c2.118-1.678,2.281-2.988,1.487-3.967M16.061,68.553v.006a.924.924,0,0,1-.365-.026.937.937,0,0,0,.365.019" transform="translate(-2.343 0)" fill="#fe9712"/>
    <path id="Path_22" data-name="Path 22" d="M127.714,56.976a11.63,11.63,0,0,1-.573,3.719,7.733,7.733,0,0,1-.943,2.043,2.676,2.676,0,0,1-.782.765c-.364.219-.487-.2-.641-.471a10.954,10.954,0,0,1-.634-1.528,15.5,15.5,0,0,1-.536-1.609,8.8,8.8,0,0,1-.143-4.618,19.4,19.4,0,0,1,1.859-4.3c.289-.492.788.462.929.677a9.7,9.7,0,0,1,1.464,5.316" transform="translate(-44.388 -18.317)" fill="#131947"/>
  </g>
</svg>
