<?xml version="1.0" encoding="UTF-8"?>
<svg id="Layer_1" data-name="Layer 1" xmlns="http://www.w3.org/2000/svg" viewBox="0 0 74.35 83.41">
  <defs>
    <style>
      .cls-1 {
        stroke-dasharray: 0 0 10.2 10.2;
      }

      .cls-1, .cls-2, .cls-3 {
        fill: none;
        stroke: #111112;
        stroke-linecap: round;
      }

      .cls-4 {
        fill: #f5a824;
      }

      .cls-4, .cls-5 {
        opacity: .5;
      }

      .cls-2 {
        stroke-dasharray: 0 0 8.56 8.56;
      }

      .cls-6, .cls-5 {
        fill: #2d2f75;
      }

      .cls-7 {
        fill: #111112;
      }
    </style>
  </defs>
  <g>
    <path class="cls-6" d="m8.58,82.91c-1.86,0-3.66-.51-5.09-1.43-.66-.44-1.21-.93-1.64-1.46-.72-.9-1.13-1.94-1.18-2.99C-.28,58.22,2.99,23.16,5.05,12.07c.56-3.03,1.04-5.39,1.35-6.84.28-1.29.81-2.5,1.57-3.6.21-.3.4-.59.6-.9l.15-.23h56.92l.15.23c.2.3.39.6.6.89.76,1.1,1.29,2.31,1.57,3.6.31,1.46.8,3.83,1.35,6.85,2.06,11.09,5.33,46.15,4.38,64.97-.05,1.05-.46,2.09-1.18,2.99-.43.53-.98,1.02-1.64,1.46-1.43.92-3.24,1.43-5.1,1.43H8.58Z"/>
    <path class="cls-7" d="m65.36,1c.2.31.4.61.61.91.74,1.07,1.23,2.23,1.49,3.42.32,1.51.8,3.86,1.35,6.83,2.14,11.51,5.31,46.23,4.37,64.85-.05.99-.44,1.91-1.07,2.7-.41.51-.93.96-1.52,1.35-1.3.84-2.99,1.35-4.82,1.35H8.58c-1.83,0-3.52-.51-4.82-1.35-.59-.39-1.11-.84-1.52-1.35-.63-.79-1.02-1.71-1.07-2.7C.23,58.39,3.4,23.67,5.54,12.16c.55-2.97,1.03-5.32,1.35-6.83.26-1.19.75-2.35,1.49-3.42.21-.3.41-.6.61-.91h56.37m.54-1H8.44l-.3.46c-.19.3-.39.59-.59.88-.8,1.15-1.35,2.43-1.65,3.78-.31,1.46-.8,3.83-1.36,6.86C2.49,23.08-.78,58.21.17,77.06c.06,1.16.5,2.29,1.29,3.27.46.57,1.05,1.1,1.75,1.56,1.52.98,3.42,1.52,5.37,1.52h57.19c1.95,0,3.86-.54,5.36-1.51.71-.47,1.3-.99,1.76-1.56.79-.99,1.23-2.12,1.29-3.28.95-18.85-2.32-53.97-4.39-65.08-.56-3.02-1.05-5.39-1.35-6.85-.3-1.36-.85-2.63-1.65-3.78-.21-.29-.4-.58-.59-.88l-.3-.46h0Z"/>
  </g>
  <path class="cls-5" d="m37.17,41.71v40.7H8.58c-1.83,0-3.52-.51-4.82-1.35-.59-.39-1.11-.84-1.52-1.35-.63-.79-1.02-1.71-1.07-2.7-.47-9.36.09-22.79,1.05-35.3h34.95Z"/>
  <path class="cls-4" d="m37.17,1v40.71H2.22c.94-12.37,2.26-23.83,3.32-29.55.55-2.97,1.03-5.32,1.35-6.83.26-1.19.75-2.35,1.49-3.42.21-.3.41-.6.61-.91h28.18Z"/>
  <path class="cls-5" d="m72.13,41.71h-34.96V1h28.19c.2.31.4.61.61.91.74,1.07,1.23,2.23,1.49,3.42.32,1.51.8,3.86,1.35,6.83,1.06,5.72,2.38,17.18,3.32,29.55Z"/>
  <path class="cls-5" d="m73.18,77.01c-.05.99-.44,1.91-1.07,2.7-.41.51-.93.96-1.52,1.35-1.3.84-2.99,1.35-4.82,1.35h-28.6v-40.7h34.96c.96,12.51,1.52,25.94,1.05,35.3Z"/>
  <g>
    <line class="cls-3" x1="37.17" y1="1" x2="37.17" y2="6"/>
    <line class="cls-1" x1="37.17" y1="16.2" x2="37.17" y2="72.31"/>
    <line class="cls-3" x1="37.17" y1="77.41" x2="37.17" y2="82.41"/>
  </g>
  <g>
    <line class="cls-3" x1="72.13" y1="41.71" x2="67.13" y2="41.71"/>
    <line class="cls-2" x1="58.57" y1="41.71" x2="11.49" y2="41.71"/>
    <line class="cls-3" x1="7.21" y1="41.71" x2="2.21" y2="41.71"/>
  </g>
</svg>